<svg width="24" height="22" viewBox="0 0 24 22" fill="none" xmlns="http://www.w3.org/2000/svg">
<path id="Icon" d="M11.9409 21.0443C11.3498 21.0443 10.6404 20.8079 10.1675 20.335C2.48276 13.5961 2.36453 13.4778 2.36453 13.3596L2.2463 13.2414C0.827584 11.8227 0 9.81281 0 7.80296V7.5665C0.118227 3.31035 3.5468 0 7.80296 0C9.10345 0 10.8768 0.70936 11.9409 2.12808C13.0049 0.70936 14.8966 0 16.197 0C20.4532 0 23.7635 3.31035 24 7.5665V7.80296C24 9.93104 23.1724 11.8227 21.7537 13.3596L21.6355 13.4778C21.5172 13.5961 20.5714 14.4236 13.8325 20.4532C13.2414 20.8079 12.6502 21.0443 11.9409 21.0443ZM4.13793 13.0049C4.61084 13.4778 6.97537 15.133 11.3498 18.9163C11.7044 19.2709 12.1773 19.2709 12.532 18.9163C17.0246 14.8966 19.6256 12.6502 20.2168 12.1773L20.335 12.0591C21.5172 10.8768 22.1084 9.3399 22.1084 7.80296V7.5665C21.9901 4.25616 19.3892 1.7734 16.0788 1.7734C15.2512 1.7734 13.5961 2.36453 13.0049 3.66503C12.7685 4.13793 12.2956 4.37439 11.8227 4.37439C11.3498 4.37439 10.8768 4.13793 10.6404 3.66503C10.0493 2.48276 8.51231 1.7734 7.5665 1.7734C4.37438 1.7734 1.65517 4.37439 1.53695 7.5665V7.92118C1.53695 9.45813 2.2463 10.9951 3.31034 12.0591L4.13793 13.0049Z" fill="white"/>
</svg>
