<svg width="64" height="64" viewBox="0 0 64 64" fill="none" xmlns="http://www.w3.org/2000/svg">
<g id="Group 11">
<g id="Rectangle 31" filter="url(#filter0_b_44_1351)">
<rect width="64" height="64" rx="15" fill="#33373B" fill-opacity="0.37"/>
</g>
<g id="Icon">
<path fill-rule="evenodd" clip-rule="evenodd" d="M41.6795 28.9901C42.527 28.9881 43.3062 29.4547 43.7045 30.2028C44.1181 30.9356 44.0961 31.8363 43.6473 32.548L38.419 40.3847C37.8755 41.2627 36.8113 41.6679 35.8215 41.3736C34.8317 41.0793 34.1616 40.1586 34.1861 39.1263V35.8657H31.7378C30.9188 35.869 30.1604 35.4342 29.7495 34.7257C29.3385 34.0171 29.3377 33.143 29.7472 32.4336L35.0555 23.144C35.4639 22.4368 36.2181 22.0008 37.0347 22C38.2984 22 39.3228 23.0244 39.3228 24.2881V28.9901H41.6795ZM36.9318 39.4351L42.16 31.5985C42.2928 31.4218 42.3119 31.1845 42.2092 30.9889C42.1065 30.7933 41.9003 30.6743 41.6795 30.6832H38.7508C38.119 30.6832 37.6067 30.171 37.6067 29.5392V24.2652C37.6068 24.1115 37.5449 23.9642 37.4352 23.8566C37.3254 23.749 37.177 23.6901 37.0233 23.6932C36.8138 23.6939 36.623 23.8137 36.5314 24.0021L31.223 33.2917C31.1259 33.4691 31.1298 33.6847 31.2332 33.8586C31.3365 34.0325 31.5241 34.1388 31.7264 34.1382H34.7467C35.3785 34.1382 35.8907 34.6504 35.8907 35.2823V39.1148C35.8937 39.3633 36.0569 39.5814 36.2944 39.6545C36.532 39.7276 36.7895 39.639 36.9318 39.4351Z" fill="white"/>
<path d="M27.7223 25.2605H22.2309C21.757 25.2605 21.3728 25.6447 21.3728 26.1185C21.3728 26.5924 21.757 26.9766 22.2309 26.9766H27.7223C28.1961 26.9766 28.5803 26.5924 28.5803 26.1185C28.5803 25.6447 28.1961 25.2605 27.7223 25.2605Z" fill="white"/>
<path d="M27.2074 31.5298C27.2013 31.0585 26.8207 30.678 26.3494 30.6718H20.858C20.3842 30.6718 20 31.056 20 31.5298C20 32.0037 20.3842 32.3879 20.858 32.3879H26.3494C26.577 32.3879 26.7952 32.2975 26.9561 32.1366C27.117 31.9756 27.2074 31.7574 27.2074 31.5298Z" fill="white"/>
<path d="M27.7223 37.2729H22.2309C21.757 37.2729 21.3728 37.6571 21.3728 38.1309C21.3728 38.6048 21.757 38.989 22.2309 38.989H27.7223C28.1961 38.989 28.5803 38.6048 28.5803 38.1309C28.5803 37.6571 28.1961 37.2729 27.7223 37.2729Z" fill="white"/>
</g>
</g>
<defs>
<filter id="filter0_b_44_1351" x="-10" y="-10" width="84" height="84" filterUnits="userSpaceOnUse" color-interpolation-filters="sRGB">
<feFlood flood-opacity="0" result="BackgroundImageFix"/>
<feGaussianBlur in="BackgroundImageFix" stdDeviation="5"/>
<feComposite in2="SourceAlpha" operator="in" result="effect1_backgroundBlur_44_1351"/>
<feBlend mode="normal" in="SourceGraphic" in2="effect1_backgroundBlur_44_1351" result="shape"/>
</filter>
</defs>
</svg>
