<svg width="64" height="64" viewBox="0 0 64 64" fill="none" xmlns="http://www.w3.org/2000/svg">
<g id="Group 7">
<g id="Rectangle 29" filter="url(#filter0_b_44_798)">
<rect width="64" height="64" rx="15" fill="#33373B" fill-opacity="0.37"/>
</g>
<g id="Icon">
<path fill-rule="evenodd" clip-rule="evenodd" d="M25.3295 20H38.6705C41.7096 20.1043 44.0916 22.6473 43.9973 25.6867V33.509C44.0425 34.9768 43.5007 36.4022 42.4919 37.4695C41.4832 38.5368 40.0906 39.1581 38.6225 39.1957H27.2011C26.4107 39.212 25.6611 39.55 25.1256 40.1315L22.2822 43.1668C22.0413 43.4295 21.7028 43.5814 21.3464 43.5867C20.9783 43.5773 20.6292 43.4212 20.3769 43.153C20.1245 42.8849 19.9898 42.527 20.0027 42.159V25.6867C19.9084 22.6473 22.2904 20.1043 25.3295 20ZM38.6705 37.3961C40.716 37.2926 42.2928 35.5548 42.1977 33.509V25.6867C42.2928 23.6408 40.716 21.9031 38.6705 21.7996H25.3295C23.284 21.9031 21.7072 23.6408 21.8023 25.6867V41.0433L23.7579 38.9077C24.6522 37.9564 25.8955 37.4106 27.2011 37.3961H38.6705Z" fill="white"/>
<path d="M27.501 28.0982H33.4997C33.9966 28.0982 34.3995 27.6953 34.3995 27.1984C34.3995 26.7014 33.9966 26.2986 33.4997 26.2986H27.501C27.0041 26.2986 26.6012 26.7014 26.6012 27.1984C26.6012 27.6953 27.0041 28.0982 27.501 28.0982Z" fill="white"/>
<path d="M36.499 31.0975H27.501C27.0041 31.0975 26.6012 31.5003 26.6012 31.9973C26.6012 32.4942 27.0041 32.8971 27.501 32.8971H36.499C36.9959 32.8971 37.3988 32.4942 37.3988 31.9973C37.3988 31.5003 36.9959 31.0975 36.499 31.0975Z" fill="white"/>
</g>
</g>
<defs>
<filter id="filter0_b_44_798" x="-10" y="-10" width="84" height="84" filterUnits="userSpaceOnUse" color-interpolation-filters="sRGB">
<feFlood flood-opacity="0" result="BackgroundImageFix"/>
<feGaussianBlur in="BackgroundImageFix" stdDeviation="5"/>
<feComposite in2="SourceAlpha" operator="in" result="effect1_backgroundBlur_44_798"/>
<feBlend mode="normal" in="SourceGraphic" in2="effect1_backgroundBlur_44_798" result="shape"/>
</filter>
</defs>
</svg>
