<svg width="64" height="64" viewBox="0 0 64 64" fill="none" xmlns="http://www.w3.org/2000/svg">
<g id="Group 12">
<g id="Rectangle 31" filter="url(#filter0_b_44_1347)">
<rect width="64" height="64" rx="15" fill="#33373B" fill-opacity="0.37"/>
</g>
<path id="Icon" fill-rule="evenodd" clip-rule="evenodd" d="M34.9003 35.3856H34.975C37.4207 34.3061 39.3713 32.3467 40.4397 29.8961V35.3234C40.4496 38.8021 38.3895 41.9533 35.1991 43.3398H35.112C34.0571 43.7865 32.9214 44.0111 31.7759 43.9996C30.6687 44.0026 29.5722 43.7825 28.5519 43.3523L28.2283 43.2154C25.0448 41.8835 22.98 38.7618 23.0001 35.3109V35.0869C23.024 33.3197 23.7442 31.6333 25.0043 30.394L25.2283 30.1824C27.2091 28.2424 28.8427 25.9773 30.0581 23.4854L31.7635 20C31.7635 20 33.5311 22.4896 35.1742 24.9792C37.1781 27.9525 36.5116 31.9731 33.6556 34.1408H33.5062C33.2097 34.514 33.2419 35.0506 33.5809 35.3856C33.7227 35.5053 33.9064 35.5636 34.0912 35.5474C34.3677 35.5359 34.6407 35.4813 34.9003 35.3856ZM34.3527 41.6096H34.4398V41.5971C36.9287 40.5063 38.5429 38.0532 38.5601 35.3358C37.7206 36.0747 36.7606 36.6641 35.7219 37.0785L35.5601 37.1408C35.0915 37.3232 34.594 37.4202 34.0912 37.4271C33.4099 37.4511 32.7485 37.1946 32.2614 36.7175C31.2444 35.7124 31.1478 34.1027 32.0373 32.9832C32.1459 32.8474 32.2714 32.7261 32.4108 32.6222H32.4979C34.5969 31.0565 35.0907 28.1155 33.6182 25.9501C33.083 25.1534 32.5477 24.3568 32.0498 23.6472L31.7386 24.2945C30.4211 26.9499 28.6616 29.3618 26.5354 31.4272L26.3113 31.6388C25.4072 32.531 24.8888 33.7421 24.8673 35.0122V35.2487C24.8336 37.9613 26.4487 40.4232 28.9503 41.4726L29.2739 41.6096C30.8967 42.2986 32.7298 42.2986 34.3527 41.6096Z" fill="white"/>
</g>
<defs>
<filter id="filter0_b_44_1347" x="-10" y="-10" width="84" height="84" filterUnits="userSpaceOnUse" color-interpolation-filters="sRGB">
<feFlood flood-opacity="0" result="BackgroundImageFix"/>
<feGaussianBlur in="BackgroundImageFix" stdDeviation="5"/>
<feComposite in2="SourceAlpha" operator="in" result="effect1_backgroundBlur_44_1347"/>
<feBlend mode="normal" in="SourceGraphic" in2="effect1_backgroundBlur_44_1347" result="shape"/>
</filter>
</defs>
</svg>
