<svg width="24" height="22" viewBox="0 0 24 22" fill="none" xmlns="http://www.w3.org/2000/svg">
<path id="Icon" d="M24 7.85075C23.8806 3.79105 20.6567 0.567169 16.597 0.567169C15.2836 0.567169 13.2537 1.52239 12.4179 3.07463C12.2985 3.43284 11.8209 3.43284 11.7015 3.07463C10.7463 1.6418 8.83582 0.686572 7.40298 0.686572C3.46269 0.686572 0.119403 3.91045 0 7.85075V8.08956C0 10.1194 0.835821 12.0299 2.26866 13.4627C2.26866 13.4627 2.26866 13.4627 2.26866 13.5821C2.38806 13.7015 8.1194 18.7164 10.7463 20.9851C11.4627 21.5821 12.5373 21.5821 13.2537 20.9851C15.8806 18.7164 21.4925 13.7015 21.7313 13.5821C21.7313 13.5821 21.7313 13.5821 21.7313 13.4627C23.1642 12.1493 24 10.2388 24 8.08956V7.85075Z" fill="white"/>
</svg>
