<svg width="64" height="64" viewBox="0 0 64 64" fill="none" xmlns="http://www.w3.org/2000/svg">
<g id="Group 7">
<g id="Rectangle 29" filter="url(#filter0_b_44_804)">
<rect width="64" height="64" rx="15" fill="#33373B" fill-opacity="0.37"/>
</g>
<path id="Icon" d="M31.9409 42.87C31.3498 42.87 30.6404 42.6355 30.1675 42.1665C22.4828 35.4834 22.3645 35.3662 22.3645 35.2489L22.2463 35.1317C20.8276 33.7247 20 31.7315 20 29.7383V29.5038C20.1182 25.2829 23.5468 22 27.803 22C29.1034 22 30.8768 22.7035 31.9409 24.1104C33.0049 22.7035 34.8966 22 36.197 22C40.4532 22 43.7635 25.2829 44 29.5038V29.7383C44 31.8488 43.1724 33.7247 41.7537 35.2489L41.6355 35.3662C41.5172 35.4834 40.5714 36.3042 33.8325 42.2838C33.2414 42.6355 32.6502 42.87 31.9409 42.87ZM24.1379 34.8972C24.6108 35.3662 26.9754 37.0076 31.3498 40.7596C31.7044 41.1113 32.1773 41.1113 32.532 40.7596C37.0246 36.7731 39.6256 34.5455 40.2168 34.0765L40.335 33.9592C41.5172 32.7867 42.1084 31.2625 42.1084 29.7383V29.5038C41.9901 26.2209 39.3892 23.7587 36.0788 23.7587C35.2512 23.7587 33.5961 24.3449 33.0049 25.6347C32.7685 26.1037 32.2956 26.3381 31.8227 26.3381C31.3498 26.3381 30.8768 26.1037 30.6404 25.6347C30.0493 24.4622 28.5123 23.7587 27.5665 23.7587C24.3744 23.7587 21.6552 26.3381 21.5369 29.5038V29.8556C21.5369 31.3798 22.2463 32.904 23.3103 33.9592L24.1379 34.8972Z" fill="white"/>
</g>
<defs>
<filter id="filter0_b_44_804" x="-10" y="-10" width="84" height="84" filterUnits="userSpaceOnUse" color-interpolation-filters="sRGB">
<feFlood flood-opacity="0" result="BackgroundImageFix"/>
<feGaussianBlur in="BackgroundImageFix" stdDeviation="5"/>
<feComposite in2="SourceAlpha" operator="in" result="effect1_backgroundBlur_44_804"/>
<feBlend mode="normal" in="SourceGraphic" in2="effect1_backgroundBlur_44_804" result="shape"/>
</filter>
</defs>
</svg>
