<svg width="64" height="64" viewBox="0 0 64 64" fill="none" xmlns="http://www.w3.org/2000/svg">
<g id="Frame 52">
<g id="Rectangle 31" filter="url(#filter0_b_44_121)">
<rect width="64" height="64" rx="15" fill="#33373B" fill-opacity="0.37"/>
</g>
<g id="Icon">
<path fill-rule="evenodd" clip-rule="evenodd" d="M41.0936 28.2418C41.3268 28.8101 41.8796 29.1819 42.4939 29.1837C43.3277 29.1904 44 29.8682 44 30.702V33.3225C44 34.161 43.3202 34.8408 42.4816 34.8408C41.8673 34.8426 41.3146 35.2144 41.0814 35.7827C40.8481 36.3511 40.9804 37.0039 41.4163 37.4367C42.0012 38.0361 42.0012 38.9925 41.4163 39.5918L39.5796 41.4286C38.9803 42.0134 38.0238 42.0134 37.4245 41.4286C37.148 41.1357 36.7619 40.9715 36.3592 40.9755C35.9544 40.9722 35.565 41.1308 35.2776 41.4159C34.9902 41.701 34.8286 42.0891 34.8286 42.4939C34.8286 43.3325 34.1488 44.0122 33.3102 44.0122H30.6898C29.8512 44.0122 29.1714 43.3325 29.1714 42.4939C29.1714 42.0891 29.0098 41.701 28.7224 41.4159C28.435 41.1308 28.0456 40.9722 27.6408 40.9755C27.2381 40.9715 26.852 41.1357 26.5755 41.4286C25.9762 42.0134 25.0197 42.0134 24.4204 41.4286L22.5837 39.5918C21.9988 38.9925 21.9988 38.0361 22.5837 37.4367C23.0196 37.0039 23.1519 36.3511 22.9186 35.7827C22.6854 35.2144 22.1327 34.8426 21.5184 34.8408C21.1157 34.8408 20.7295 34.6808 20.4447 34.3961C20.16 34.1113 20 33.7251 20 33.3225V30.702C20 29.8635 20.6798 29.1837 21.5184 29.1837C22.1327 29.1819 22.6854 28.8101 22.9186 28.2418C23.1519 27.6734 23.0196 27.0206 22.5837 26.5878C21.9988 25.9884 21.9988 25.032 22.5837 24.4327L24.4204 22.5959C25.0197 22.0111 25.9762 22.0111 26.5755 22.5959C26.852 22.8888 27.2381 23.053 27.6408 23.049C28.0478 23.0523 28.439 22.8921 28.7268 22.6043C29.0145 22.3165 29.1747 21.9253 29.1714 21.5184C29.1714 20.6798 29.8512 20 30.6898 20H33.3224C34.161 20 34.8408 20.6798 34.8408 21.5184C34.8375 21.9253 34.9977 22.3165 35.2855 22.6043C35.5732 22.8921 35.9645 23.0523 36.3714 23.049C36.7742 23.053 37.1603 22.8888 37.4367 22.5959C38.0361 22.0111 38.9925 22.0111 39.5918 22.5959L41.4286 24.4327C42.0134 25.032 42.0134 25.9884 41.4286 26.5878C40.9926 27.0206 40.8604 27.6734 41.0936 28.2418ZM39.3469 35.0735C39.8249 33.908 40.9195 33.112 42.1755 33.0163L42.1388 31.0082C40.8964 30.8992 39.819 30.1053 39.3469 28.951C38.8845 27.794 39.0963 26.4763 39.898 25.5224L38.4898 24.1143C37.8926 24.6144 37.1381 24.8876 36.3592 24.8857C34.6239 24.8815 33.1738 23.5637 33.0041 21.8367H30.9959C30.8316 23.5664 29.3783 24.8872 27.6408 24.8857C26.8619 24.8876 26.1074 24.6144 25.5102 24.1143L24.1388 25.5224C24.928 26.4836 25.1255 27.8006 24.6531 28.951C24.181 30.1053 23.1036 30.8992 21.8612 31.0082V33.0163C23.1036 33.1253 24.181 33.9191 24.6531 35.0735C25.1155 36.2305 24.9037 37.5482 24.102 38.502L25.5102 39.9102C26.1074 39.4101 26.8619 39.1369 27.6408 39.1388C29.3761 39.143 30.8262 40.4608 30.9959 42.1878H33.0041C33.1572 40.4525 34.6172 39.1257 36.3592 39.1388C37.1381 39.1369 37.8926 39.4101 38.4898 39.9102L39.8612 38.502C39.072 37.5409 38.8745 36.2239 39.3469 35.0735Z" fill="white"/>
<path fill-rule="evenodd" clip-rule="evenodd" d="M27.7633 32.0122C27.7633 29.6724 29.6601 27.7755 32 27.7755C33.1237 27.7755 34.2013 28.2219 34.9958 29.0164C35.7904 29.811 36.2367 30.8886 36.2367 32.0122C36.2367 34.3521 34.3399 36.249 32 36.249C29.6601 36.249 27.7633 34.3521 27.7633 32.0122ZM29.551 32.0122C29.551 33.3648 30.6475 34.4612 32 34.4612C33.3525 34.4612 34.449 33.3648 34.449 32.0122C34.449 30.6597 33.3525 29.5633 32 29.5633C30.6475 29.5633 29.551 30.6597 29.551 32.0122Z" fill="white"/>
</g>
</g>
<defs>
<filter id="filter0_b_44_121" x="-10" y="-10" width="84" height="84" filterUnits="userSpaceOnUse" color-interpolation-filters="sRGB">
<feFlood flood-opacity="0" result="BackgroundImageFix"/>
<feGaussianBlur in="BackgroundImageFix" stdDeviation="5"/>
<feComposite in2="SourceAlpha" operator="in" result="effect1_backgroundBlur_44_121"/>
<feBlend mode="normal" in="SourceGraphic" in2="effect1_backgroundBlur_44_121" result="shape"/>
</filter>
</defs>
</svg>
