<svg width="64" height="64" viewBox="0 0 64 64" fill="none" xmlns="http://www.w3.org/2000/svg">
<g id="Group 7">
<g id="Rectangle 29" filter="url(#filter0_b_44_1330)">
<rect width="64" height="64" rx="15" fill="#33373B" fill-opacity="0.37"/>
</g>
<path id="Icon" fill-rule="evenodd" clip-rule="evenodd" d="M36.4785 37.0465C37.1077 37.0482 37.7246 37.2217 38.2625 37.5482H38.2486C39.8704 38.5155 40.4211 40.602 39.488 42.2437C38.555 43.8855 36.4805 44.4799 34.8196 43.5814C33.1586 42.683 32.5208 40.6214 33.3842 38.942L29.3004 34.7746C29.0055 34.9541 28.6863 35.0902 28.3526 35.1788C28.0748 35.2501 27.7893 35.2876 27.5024 35.2903C25.7341 35.2992 24.2394 33.9822 24.0258 32.2268C23.8121 30.4714 24.9473 28.8343 26.6661 28.4189C26.9398 28.3521 27.2207 28.3193 27.5024 28.3213C28.2217 28.3218 28.9231 28.5459 29.5095 28.9624L33.3842 25.0877C32.807 24.009 32.8428 22.7056 33.4786 21.6604C34.1143 20.6151 35.2552 19.9838 36.4785 20.0003C37.1065 19.9971 37.7235 20.1658 38.2625 20.4881C39.358 21.0907 40.0489 22.2319 40.0748 23.4819C40.1008 24.7319 39.4579 25.9008 38.3883 26.5482C37.3188 27.1957 35.985 27.2234 34.8895 26.6209L30.7918 30.7186C30.8373 30.8176 30.8746 30.9202 30.9033 31.0253C31.0884 31.7754 31.0148 32.5662 30.6942 33.2693L34.8756 37.4507C35.3707 37.1918 35.9198 37.0533 36.4785 37.0465ZM36.4785 22.091C35.9892 22.0882 35.5342 22.3421 35.2798 22.76C35.0898 23.0787 35.0346 23.4599 35.1265 23.8193C35.207 24.1782 35.4346 24.4867 35.7537 24.6695C35.9674 24.8021 36.2131 24.8743 36.4645 24.8786C36.9566 24.8785 37.4122 24.6189 37.6632 24.1956C38.0581 23.5373 37.8462 22.6835 37.1893 22.2861C36.9759 22.1544 36.7292 22.0867 36.4785 22.091ZM27.5024 33.1996C26.8464 33.2187 26.2659 32.7775 26.1086 32.1403C26.0209 31.779 26.0811 31.3977 26.2759 31.081C26.466 30.7685 26.7714 30.5432 27.1261 30.4538H27.4606C28.1167 30.4347 28.6972 30.8759 28.8544 31.5131C28.9425 31.8681 28.8874 32.2436 28.7011 32.5584L28.6175 32.656C28.4326 32.9205 28.1616 33.1126 27.8509 33.1996H27.5024ZM36.4645 41.8551C36.9538 41.8579 37.4088 41.604 37.6632 41.186C38.0124 40.5434 37.8055 39.7402 37.1893 39.3462C36.9756 39.2137 36.7299 39.1414 36.4785 39.1371C35.9864 39.1372 35.5308 39.3968 35.2798 39.8201C34.8849 40.4785 35.0968 41.3323 35.7537 41.7296C35.9742 41.8372 36.2205 41.8806 36.4645 41.8551Z" fill="white"/>
</g>
<defs>
<filter id="filter0_b_44_1330" x="-10" y="-10" width="84" height="84" filterUnits="userSpaceOnUse" color-interpolation-filters="sRGB">
<feFlood flood-opacity="0" result="BackgroundImageFix"/>
<feGaussianBlur in="BackgroundImageFix" stdDeviation="5"/>
<feComposite in2="SourceAlpha" operator="in" result="effect1_backgroundBlur_44_1330"/>
<feBlend mode="normal" in="SourceGraphic" in2="effect1_backgroundBlur_44_1330" result="shape"/>
</filter>
</defs>
</svg>
