<svg width="64" height="64" viewBox="0 0 64 64" fill="none" xmlns="http://www.w3.org/2000/svg">
<g id="Group 11">
<g id="Rectangle 31" filter="url(#filter0_b_44_1219)">
<rect width="64" height="64" rx="15" fill="#33373B" fill-opacity="0.37"/>
</g>
<g id="Icon">
<path fill-rule="evenodd" clip-rule="evenodd" d="M41.5842 37.652L41.8722 39.02C42.1451 40.2027 41.8756 41.4455 41.1374 42.409C40.3991 43.3724 39.2692 43.9559 38.0562 44H26.9202C25.7072 43.9559 24.5773 43.3724 23.839 42.409C23.1007 41.4455 22.8313 40.2027 23.1042 39.02L23.3922 37.652C23.7234 35.8001 25.3153 34.4392 27.1962 34.4H37.7802C39.661 34.4392 41.2529 35.8001 41.5842 37.652ZM38.0562 42.188C38.6655 42.1809 39.239 41.8986 39.6162 41.42V41.432C40.079 40.8514 40.2593 40.0949 40.1082 39.368L39.8202 38C39.6604 36.9862 38.8057 36.2271 37.7802 36.188H27.1962C26.1706 36.2271 25.316 36.9862 25.1562 38L24.8682 39.368C24.7208 40.0911 24.9009 40.8424 25.3602 41.42C25.7374 41.8986 26.3109 42.1809 26.9202 42.188H38.0562Z" fill="white"/>
<path fill-rule="evenodd" clip-rule="evenodd" d="M33.0882 32H31.8882C29.2372 32 27.0882 29.851 27.0882 27.2V24.032C27.085 22.9617 27.5087 21.9343 28.2656 21.1774C29.0224 20.4206 30.0498 19.9968 31.1202 20H33.8562C34.9265 19.9968 35.9539 20.4206 36.7107 21.1774C37.4676 21.9343 37.8914 22.9617 37.8882 24.032V27.2C37.8882 29.851 35.7391 32 33.0882 32ZM31.1202 21.8C29.8875 21.8 28.8882 22.7993 28.8882 24.032V27.2C28.8882 28.8569 30.2313 30.2 31.8882 30.2H33.0882C34.745 30.2 36.0882 28.8569 36.0882 27.2V24.032C36.0882 23.44 35.853 22.8723 35.4344 22.4538C35.0158 22.0352 34.4481 21.8 33.8562 21.8H31.1202Z" fill="white"/>
</g>
</g>
<defs>
<filter id="filter0_b_44_1219" x="-10" y="-10" width="84" height="84" filterUnits="userSpaceOnUse" color-interpolation-filters="sRGB">
<feFlood flood-opacity="0" result="BackgroundImageFix"/>
<feGaussianBlur in="BackgroundImageFix" stdDeviation="5"/>
<feComposite in2="SourceAlpha" operator="in" result="effect1_backgroundBlur_44_1219"/>
<feBlend mode="normal" in="SourceGraphic" in2="effect1_backgroundBlur_44_1219" result="shape"/>
</filter>
</defs>
</svg>
